# xmcd
#
# Track frame offsets:
#	150
#	31517
#	64870
#	95405
#	127595
#	168672
#	185015
#	219910
#	245895
#	288007
# Disc length: 4145 seconds
# Revision: 1
# Processed by: cddbd v1.5.1PL2 Copyright (c) Steve Scherf et al.
#
# Submitted via: libkcddb 0.31
#
DISCID=84102f0a
DTITLE=Yanni - Yanni Live At The Acropolis
DYEAR=1994
DGENRE=New Age
TTITLE0=Santorini
TTITLE1=Keys To Imagination
TTITLE2=Until The Last Moment
TTITLE3=The Rain Must Fall
TTITLE4=Acroyali/Standing In Motion
TTITLE5=One Man's Dream
TTITLE6=Within Attraction
TTITLE7=Nostalgia
TTITLE8=Swept Away
TTITLE9=Reflections Of Passion
EXTD=
EXTT0=
EXTT1=
EXTT2=
EXTT3=
EXTT4=
EXTT5=
EXTT6=
EXTT7=
EXTT8=
EXTT9=
PLAYORDER=
